<svg width="35" height="36" viewBox="0 0 35 36" fill="none" xmlns="http://www.w3.org/2000/svg">
<g filter="url(#filter0_b_246_6905)">
<rect width="35" height="36" rx="17.5" fill="white" fill-opacity="0.53"/>
</g>
<path d="M23.6799 15.5181L21.9562 16.5596C22.2256 17.4821 22.2256 18.4669 21.9562 19.3894L23.6799 20.4309C23.9166 20.2678 24.1769 20.145 24.4507 20.0672L26.5266 19.4974C27.1495 19.3266 27.7876 19.7131 27.9518 20.3606C28.116 21.0081 27.7442 21.6715 27.1214 21.8422L25.0478 22.412C24.8958 22.4552 24.8046 22.6167 24.8425 22.7758L25.3907 24.9339C25.5731 25.5761 25.2202 26.2504 24.6025 26.4401C23.9848 26.6298 23.3361 26.2629 23.1537 25.6207C23.1473 25.5981 23.1415 25.5752 23.1363 25.5523L22.5882 23.3965C22.5158 23.1112 22.4882 22.8156 22.5065 22.5211L20.7374 21.4505C20.1579 22.0352 19.4421 22.453 18.6603 22.663V24.8332C18.9148 24.9639 19.1469 25.1372 19.3472 25.3461L20.8633 26.9222C21.3207 27.394 21.3235 28.1618 20.8698 28.6372C20.416 29.1126 19.6774 29.1156 19.2202 28.6439L17.7041 27.0677C17.5918 26.9505 17.4094 26.9502 17.2967 27.0669C17.2964 27.0672 17.2961 27.0674 17.2959 27.0677L15.7797 28.6439C15.3247 29.118 14.5861 29.1188 14.1301 28.6457C13.6741 28.1726 13.6733 27.4048 14.1283 26.9308L15.6445 25.3546C15.8451 25.1451 16.0776 24.9714 16.3325 24.8405V22.6702C15.5507 22.4603 14.8349 22.0424 14.2555 21.4578L12.4839 22.5272C12.5023 22.8216 12.4747 23.1172 12.4023 23.4025L11.8542 25.5583C11.7081 26.2104 11.0812 26.616 10.4539 26.4642C9.82655 26.3123 9.43641 25.6605 9.58246 25.0084C9.58763 24.9854 9.5934 24.9625 9.59984 24.9399L10.148 22.783C10.1858 22.6239 10.0947 22.4625 9.94269 22.4192L7.8691 21.8494C7.24636 21.6787 6.87459 21.0153 7.03884 20.3678C7.20309 19.7203 7.84117 19.3338 8.46396 19.5046L10.5387 20.0744C10.8131 20.152 11.0737 20.2748 11.3107 20.4381L13.0344 19.3966C12.765 18.4741 12.765 17.4893 13.0344 16.5668L11.3177 15.518C11.081 15.6811 10.8207 15.8039 10.5468 15.8818L8.47094 16.4516C7.84815 16.6224 7.21007 16.2359 7.04582 15.5884C6.88158 14.9409 7.25335 14.2775 7.87619 14.1068L9.94978 13.537C10.1018 13.4938 10.1929 13.3323 10.155 13.1733L9.60693 11.0151C9.42448 10.3729 9.77739 9.69859 10.3951 9.50892C11.0127 9.31924 11.6614 9.68613 11.8439 10.3283C11.8503 10.3509 11.8561 10.3738 11.8613 10.3968L12.4094 12.5525C12.4818 12.8378 12.5093 13.1334 12.491 13.4279L14.2602 14.4985C14.8383 13.9152 15.5519 13.4975 16.3314 13.286L16.3221 11.2249C16.0659 11.0909 15.833 10.9134 15.6328 10.6999L14.1167 9.12373C13.6326 8.68201 13.5846 7.91599 14.0095 7.4127C14.4344 6.90941 15.1712 6.8595 15.6553 7.30122C15.6915 7.33421 15.7256 7.36954 15.7576 7.40692L17.2738 8.9831C17.387 9.10006 17.5699 9.10006 17.6831 8.9831L19.1992 7.40692C19.6552 6.93319 20.3943 6.93342 20.85 7.40755C21.3057 7.88163 21.3055 8.65 20.8494 9.12373L19.3321 10.6999C19.1328 10.9074 18.9024 11.0797 18.6499 11.2103L18.6651 13.2763C19.4484 13.486 20.1657 13.9038 20.7468 14.4888L22.516 13.4182C22.4976 13.1237 22.5252 12.8281 22.5976 12.5428L23.1457 10.387C23.2918 9.73489 23.9187 9.3293 24.546 9.48113C25.1733 9.63297 25.5635 10.2848 25.4174 10.9369C25.4123 10.9599 25.4065 10.9828 25.4001 11.0054L24.8519 13.1623C24.8141 13.3214 24.9052 13.4828 25.0572 13.5261L27.1308 14.0959C27.7536 14.2667 28.1254 14.93 27.9612 15.5775C27.7969 16.2249 27.1588 16.6115 26.536 16.4407L24.4613 15.8709C24.1843 15.7976 23.9204 15.6785 23.6799 15.5181ZM19.8313 17.9745C19.8313 16.6352 18.787 15.5496 17.4988 15.5496C16.2106 15.5496 15.1664 16.6352 15.1664 17.9745C15.1664 19.3137 16.2106 20.3993 17.4988 20.3993C18.787 20.3993 19.8313 19.3137 19.8313 17.9745Z" fill="#7A889F"/>
<line x1="27.6532" y1="29.2712" x2="6.52501" y2="8.14308" stroke="#3DC383" stroke-width="2" stroke-linecap="round"/>
<defs>
<filter id="filter0_b_246_6905" x="-8" y="-8" width="51" height="52" filterUnits="userSpaceOnUse" color-interpolation-filters="sRGB">
<feFlood flood-opacity="0" result="BackgroundImageFix"/>
<feGaussianBlur in="BackgroundImage" stdDeviation="4"/>
<feComposite in2="SourceAlpha" operator="in" result="effect1_backgroundBlur_246_6905"/>
<feBlend mode="normal" in="SourceGraphic" in2="effect1_backgroundBlur_246_6905" result="shape"/>
</filter>
</defs>
</svg>
