<svg width="100" height="100" viewBox="0 0 100 100" fill="none" xmlns="http://www.w3.org/2000/svg">
<path d="M88.4252 76.7306C88.4252 57.5167 98.378 44.3223 98.378 35.0639C98.378 25.8056 93.0557 6.36115 50.4641 6.36115C7.87241 6.36115 1.61963 32.5195 1.61963 42.7028C1.61963 90.3889 88.4252 110.758 88.4252 76.7306Z" fill="white"/>
<path d="M74.2798 11.4346L76.244 9.47042L80.1723 13.3988L78.2082 15.363L74.2798 11.4346Z" fill="#A4AFC1"/>
<path d="M85.5728 22.7295L87.5369 20.7653L91.4653 24.6937L89.5011 26.6579L85.5728 22.7295Z" fill="#A4AFC1"/>
<path d="M85.084 13.4001L89.0124 9.47172L90.9765 11.4359L87.0482 15.3643L85.084 13.4001Z" fill="#A4AFC1"/>
<path d="M13.8888 45.8333C11.5916 45.8333 9.72217 43.9639 9.72217 41.6667C9.72217 39.3694 11.5916 37.5 13.8888 37.5C16.1861 37.5 18.0555 39.3694 18.0555 41.6667C18.0555 43.9639 16.1861 45.8333 13.8888 45.8333ZM13.8888 40.2778C13.1222 40.2778 12.4999 40.9 12.4999 41.6667C12.4999 42.4333 13.1222 43.0556 13.8888 43.0556C14.6555 43.0556 15.2777 42.4333 15.2777 41.6667C15.2777 40.9 14.6555 40.2778 13.8888 40.2778Z" fill="#A4AFC1"/>
<path d="M43.0556 36.8054L68.0555 81.2499H18.75L43.0556 36.8054Z" fill="#2FDF84"/>
<path d="M60.2028 67.5442L66.6666 54.8609L81.25 81.2497H68.0555L60.2028 67.5442Z" fill="#2FDF84"/>
<path d="M43.0557 18.75H59.0279L54.8612 23.6111L59.0279 28.4722H43.0557V18.75Z" fill="#F3F3F1"/>
<path d="M43.0557 18.75H49.3057V28.4722H43.0557V18.75Z" fill="#D5DBE1"/>
<path d="M43.0556 36.8054L18.75 81.2499H24.6528L46.0472 42.1249L43.0556 36.8054Z" fill="#00B871"/>
<path d="M69.7361 60.4164L66.6667 54.8609L60.2028 67.5442L68.0555 81.2497H73.9583L66.1055 67.5442L69.7361 60.4164Z" fill="#00B871"/>
<path d="M68.0555 83.3333H18.75C18.0138 83.3333 17.3333 82.9444 16.9583 82.3111C16.5833 81.6777 16.5694 80.8944 16.9222 80.25L24.8972 65.6666L28.5527 67.6666L22.2638 79.1666H64.4944L43.0833 41.1L31.2138 62.8055L27.5583 60.8055L41.2305 35.8055C41.5944 35.1416 42.2888 34.725 43.0472 34.7222C43.7388 34.7027 44.5027 35.125 44.875 35.7833L69.875 80.2277C70.2361 80.8722 70.2305 81.6611 69.8583 82.3C69.4805 82.9389 68.7972 83.3333 68.0555 83.3333Z" fill="#353643"/>
<path d="M81.2498 83.3333H68.0554V79.1666H77.7192L66.7415 59.3027L62.0554 68.4916L58.3442 66.5972L64.8109 53.9138C65.1609 53.2277 65.8609 52.7916 66.6304 52.7777C67.4831 52.786 68.1192 53.1805 68.4887 53.8527L83.072 80.2416C83.4276 80.886 83.4192 81.6722 83.0442 82.3083C82.6692 82.9444 81.9887 83.3333 81.2498 83.3333Z" fill="#353643"/>
<path d="M45.1388 36.8057H40.9722V18.7502C40.9722 17.6002 41.9055 16.6668 43.0555 16.6668H59.0277C59.8416 16.6668 60.5805 17.139 60.9194 17.8807C61.2611 18.6196 61.1388 19.489 60.6083 20.1085L57.6055 23.6113L60.6111 27.1168C61.1416 27.7363 61.2611 28.6057 60.9222 29.3446C60.5805 30.0835 59.8416 30.5557 59.0277 30.5557H45.1388V36.8057ZM45.1388 26.389H54.4972L53.2805 24.9668C52.6111 24.1863 52.6111 23.0363 53.2805 22.2529L54.4972 20.8335H45.1388V26.389Z" fill="#353643"/>
<path d="M47.2222 58.3334C46.6889 58.3334 46.1528 58.1278 45.75 57.7223L43.0555 55.0278L40.3611 57.7223C39.6028 58.4834 38.3889 58.539 37.5611 57.8556L33.5889 54.5778L36.2416 51.3639L38.7528 53.439L41.5805 50.6112C42.3944 49.7973 43.7139 49.7973 44.5278 50.6112L47.3555 53.439L49.8666 51.3639L52.5194 54.5778L48.5472 57.8556C48.1611 58.1751 47.6916 58.3334 47.2222 58.3334Z" fill="#353643"/>
<path d="M5.55554 79.1664H94.4444V83.333H5.55554V79.1664Z" fill="#353643"/>
</svg>
