<svg width="100" height="100" viewBox="0 0 100 100" fill="none" xmlns="http://www.w3.org/2000/svg">
<path d="M96.9552 56.5418C86.4497 40.4557 87.5663 23.9668 82.5024 16.214C77.4386 8.46125 62.3469 -4.90542 26.6886 18.3862C-8.96978 41.6779 0.0996612 66.9973 5.67188 75.5223C31.7497 115.445 115.564 85.0307 96.9552 56.5418Z" fill="white"/>
<path d="M29.8612 38.1946L24.3057 67.3613H34.7223H45.8334H55.5557L61.8057 38.1946H29.8612Z" fill="#2FDF84"/>
<path d="M70.139 46.5277H60.0196L55.5557 67.361H65.2779H76.389H79.1668L81.2501 57.6388C81.2501 51.4999 76.2779 46.5277 70.139 46.5277Z" fill="#2FDF84"/>
<path d="M70.8333 72.9168C73.518 72.9168 75.6944 70.7404 75.6944 68.0557C75.6944 65.371 73.518 63.1946 70.8333 63.1946C68.1486 63.1946 65.9722 65.371 65.9722 68.0557C65.9722 70.7404 68.1486 72.9168 70.8333 72.9168Z" fill="#F3F3F1"/>
<path d="M40.2776 72.9168C42.9623 72.9168 45.1387 70.7404 45.1387 68.0557C45.1387 65.371 42.9623 63.1946 40.2776 63.1946C37.5929 63.1946 35.4165 65.371 35.4165 68.0557C35.4165 70.7404 37.5929 72.9168 40.2776 72.9168Z" fill="#F3F3F1"/>
<path d="M29.8612 38.1946L24.3057 67.3613H30.5557L36.1112 38.1946H29.8612Z" fill="#00B871"/>
<path d="M60.0196 46.5277L55.5557 67.361H61.8057L66.2696 46.5277H60.0196Z" fill="#00B871"/>
<path d="M72.2222 68.0557C72.2222 66.5668 72.9055 65.2529 73.9583 64.3612C73.1111 63.6446 72.0305 63.1946 70.8333 63.1946C68.1472 63.1946 65.9722 65.3724 65.9722 68.0557C65.9722 70.739 68.1472 72.9168 70.8333 72.9168C72.0305 72.9168 73.1111 72.4668 73.9583 71.7501C72.9055 70.8585 72.2222 69.5446 72.2222 68.0557Z" fill="#D5DBE1"/>
<path d="M41.6665 68.0557C41.6665 66.5668 42.3498 65.2529 43.4026 64.3612C42.5554 63.6446 41.4748 63.1946 40.2776 63.1946C37.5943 63.1946 35.4165 65.3724 35.4165 68.0557C35.4165 70.739 37.5943 72.9168 40.2776 72.9168C41.4748 72.9168 42.5554 72.4668 43.4026 71.7501C42.3498 70.8585 41.6665 69.5446 41.6665 68.0557Z" fill="#D5DBE1"/>
<path d="M15.9723 35.417C13.6751 35.417 11.8057 33.5475 11.8057 31.2503C11.8057 28.9531 13.6751 27.0836 15.9723 27.0836C18.2696 27.0836 20.139 28.9531 20.139 31.2503C20.139 33.5475 18.2696 35.417 15.9723 35.417ZM15.9723 29.8614C15.2057 29.8614 14.5834 30.4864 14.5834 31.2503C14.5834 32.0142 15.2057 32.6392 15.9723 32.6392C16.739 32.6392 17.3612 32.0142 17.3612 31.2503C17.3612 30.4864 16.739 29.8614 15.9723 29.8614Z" fill="#A4AFC1"/>
<path d="M72.8975 20.4716L74.8616 18.5074L78.79 22.4358L76.8258 24.4L72.8975 20.4716Z" fill="#A4AFC1"/>
<path d="M84.1899 31.7691L86.1541 29.8049L90.0825 33.7333L88.1183 35.6975L84.1899 31.7691Z" fill="#A4AFC1"/>
<path d="M72.4009 33.7166L76.3293 29.7882L78.2934 31.7524L74.3651 35.6808L72.4009 33.7166Z" fill="#A4AFC1"/>
<path d="M83.6953 22.424L87.6237 18.4957L89.5879 20.4598L85.6595 24.3882L83.6953 22.424Z" fill="#A4AFC1"/>
<path d="M24.3057 65.2777H34.7223V69.4444H24.3057V65.2777Z" fill="#353643"/>
<path d="M55.5558 69.4442H45.8336V65.2775H53.8724L59.2308 40.2776H29.8613V36.1109H61.8058C62.4363 36.1109 63.0308 36.397 63.4252 36.8831C63.8224 37.3748 63.9752 38.0137 63.8419 38.6303L57.5919 67.797C57.3863 68.7581 56.5391 69.4442 55.5558 69.4442Z" fill="#353643"/>
<path d="M79.1665 69.4446H76.3888V65.2779H77.4832L79.1638 57.4307C79.0526 52.5474 75.0471 48.6112 70.1388 48.6112H61.7026L58.1304 65.2779H65.2776V69.4446H55.5554C54.9249 69.4446 54.3304 69.1585 53.936 68.6724C53.5388 68.1807 53.386 67.5418 53.5193 66.9251L57.9832 46.0918C58.1888 45.1307 59.036 44.4446 60.0193 44.4446H70.1388C77.4138 44.4446 83.3332 50.364 83.3332 57.639C83.3332 57.7862 83.3193 57.9307 83.286 58.0751L81.2026 67.7974C80.9971 68.7585 80.1499 69.4446 79.1665 69.4446Z" fill="#353643"/>
<path d="M70.8336 74.9998C67.0058 74.9998 63.8892 71.8859 63.8892 68.0553C63.8892 64.2248 67.0058 61.1109 70.8336 61.1109C74.6614 61.1109 77.778 64.2248 77.778 68.0553C77.778 71.8859 74.6614 74.9998 70.8336 74.9998ZM70.8336 65.2776C69.303 65.2776 68.0558 66.522 68.0558 68.0553C68.0558 69.5887 69.303 70.8331 70.8336 70.8331C72.3642 70.8331 73.6114 69.5887 73.6114 68.0553C73.6114 66.522 72.3642 65.2776 70.8336 65.2776Z" fill="#353643"/>
<path d="M40.2779 74.9998C36.4502 74.9998 33.3335 71.8859 33.3335 68.0553C33.3335 64.2248 36.4502 61.1109 40.2779 61.1109C44.1057 61.1109 47.2224 64.2248 47.2224 68.0553C47.2224 71.8859 44.1057 74.9998 40.2779 74.9998ZM40.2779 65.2776C38.7474 65.2776 37.5002 66.522 37.5002 68.0553C37.5002 69.5887 38.7474 70.8331 40.2779 70.8331C41.8085 70.8331 43.0557 69.5887 43.0557 68.0553C43.0557 66.522 41.8085 65.2776 40.2779 65.2776Z" fill="#353643"/>
<path d="M24.3057 41.6668H34.0279V45.8335H24.3057V41.6668Z" fill="#353643"/>
<path d="M21.5278 50H34.0278V54.1667H21.5278V50Z" fill="#353643"/>
<path d="M18.75 58.3332H34.0278V62.4998H18.75V58.3332Z" fill="#353643"/>
</svg>
