<svg width="100" height="100" viewBox="0 0 100 100" fill="none" xmlns="http://www.w3.org/2000/svg">
<path d="M96.9552 56.5416C86.4497 40.4554 87.5663 23.9666 82.5025 16.2138C77.4386 8.46101 62.3469 -4.90566 26.6886 18.386C-8.96978 41.6777 0.0996612 66.9971 5.67188 75.5221C31.7497 115.444 115.564 85.0304 96.9552 56.5416V56.5416Z" fill="white"/>
<path d="M50.0001 75.6943C64.1908 75.6943 75.6946 64.1905 75.6946 49.9999C75.6946 35.8092 64.1908 24.3054 50.0001 24.3054C35.8095 24.3054 24.3057 35.8092 24.3057 49.9999C24.3057 64.1905 35.8095 75.6943 50.0001 75.6943Z" fill="#F3F3F1"/>
<path d="M30.5557 49.9999C30.5557 36.8693 40.4112 26.0582 53.1251 24.5138C52.0973 24.3888 51.0612 24.3054 50.0001 24.3054C35.8084 24.3054 24.3057 35.8082 24.3057 49.9999C24.3057 64.1915 35.8084 75.6943 50.0001 75.6943C51.0612 75.6943 52.0973 75.611 53.1251 75.486C40.4112 73.9415 30.5557 63.1304 30.5557 49.9999Z" fill="#D5DBE1"/>
<path d="M11.0967 12.8129L13.0609 10.8487L16.9892 14.777L15.0251 16.7412L11.0967 12.8129Z" fill="#A4AFC1"/>
<path d="M22.3843 24.1036L24.3485 22.1394L28.2768 26.0677L26.3126 28.0319L22.3843 24.1036Z" fill="#A4AFC1"/>
<path d="M10.6035 26.0735L14.5319 22.1452L16.4961 24.1093L12.5677 28.0377L10.6035 26.0735Z" fill="#A4AFC1"/>
<path d="M21.8931 14.7798L25.8214 10.8514L27.7856 12.8156L23.8573 16.744L21.8931 14.7798Z" fill="#A4AFC1"/>
<path d="M49.9999 61.8057C56.5199 61.8057 61.8055 56.5202 61.8055 50.0001C61.8055 43.4801 56.5199 38.1946 49.9999 38.1946C43.4799 38.1946 38.1943 43.4801 38.1943 50.0001C38.1943 56.5202 43.4799 61.8057 49.9999 61.8057Z" fill="#2FDF84"/>
<path d="M44.4443 50.0001C44.4443 44.5696 48.1332 40.0418 53.1249 38.6668C52.1221 38.3918 51.0888 38.1946 49.9999 38.1946C43.4804 38.1946 38.1943 43.4807 38.1943 50.0001C38.1943 56.5196 43.4804 61.8057 49.9999 61.8057C51.0888 61.8057 52.1221 61.6112 53.1249 61.3335C48.1332 59.9585 44.4443 55.4307 44.4443 50.0001Z" fill="#3DC383"/>
<path d="M50.0002 63.8887C42.3419 63.8887 36.1113 57.6581 36.1113 49.9998C36.1113 42.3415 42.3419 36.1109 50.0002 36.1109C57.6585 36.1109 63.8891 42.3415 63.8891 49.9998C63.8891 57.6581 57.6585 63.8887 50.0002 63.8887ZM50.0002 40.2776C44.6391 40.2776 40.278 44.6387 40.278 49.9998C40.278 55.3609 44.6391 59.722 50.0002 59.722C55.3613 59.722 59.7224 55.3609 59.7224 49.9998C59.7224 44.6387 55.3613 40.2776 50.0002 40.2776Z" fill="#353643"/>
<path d="M49.9999 77.7779C34.6833 77.7779 22.2222 65.3167 22.2222 50.0001C22.2222 34.6834 34.6833 22.2223 49.9999 22.2223C65.3166 22.2223 77.7777 34.6834 77.7777 50.0001C77.7777 65.3167 65.3166 77.7779 49.9999 77.7779ZM49.9999 26.389C36.9805 26.389 26.3888 36.9806 26.3888 50.0001C26.3888 63.0195 36.9805 73.6112 49.9999 73.6112C63.0194 73.6112 73.6111 63.0195 73.6111 50.0001C73.6111 36.9806 63.0194 26.389 49.9999 26.389Z" fill="#353643"/>
<path d="M47.9165 18.75H52.0832V28.4722H47.9165V18.75Z" fill="#353643"/>
<path d="M47.9165 71.5277H52.0832V81.2499H47.9165V71.5277Z" fill="#353643"/>
<path d="M18.75 47.9168H28.4722V52.0835H18.75V47.9168Z" fill="#353643"/>
<path d="M71.5278 47.9168H81.2501V52.0835H71.5278V47.9168Z" fill="#353643"/>
</svg>
