<svg width="100" height="100" viewBox="0 0 100 100" fill="none" xmlns="http://www.w3.org/2000/svg">
<path d="M76.1584 10.8723C56.9501 11.2306 43.5695 1.52506 34.314 1.70006C25.0584 1.87506 5.71399 7.55839 6.51121 50.1445C7.30843 92.7306 33.5779 98.489 43.7612 98.3001C91.4362 97.4084 110.181 10.2362 76.1584 10.8723Z" fill="white"/>
<path d="M55.208 13.85H60.7636V16.6278H55.208V13.85Z" fill="#A4AFC1"/>
<path d="M39.2358 13.85H44.7914V16.6278H39.2358V13.85Z" fill="#A4AFC1"/>
<path d="M48.958 4.12775H51.7358V9.6833H48.958V4.12775Z" fill="#A4AFC1"/>
<path d="M21.5275 36.8056C19.2303 36.8056 17.3608 34.9362 17.3608 32.639C17.3608 30.3417 19.2303 28.4723 21.5275 28.4723C23.8247 28.4723 25.6942 30.3417 25.6942 32.639C25.6942 34.9362 23.8247 36.8056 21.5275 36.8056ZM21.5275 31.2501C20.7608 31.2501 20.1386 31.8751 20.1386 32.639C20.1386 33.4028 20.7608 34.0278 21.5275 34.0278C22.2942 34.0278 22.9164 33.4028 22.9164 32.639C22.9164 31.8751 22.2942 31.2501 21.5275 31.2501Z" fill="#A4AFC1"/>
<path d="M75.6945 78.4725H24.3056L21.5278 67.3614H78.4723L75.6945 78.4725Z" fill="#F3F3F1"/>
<path d="M50.0001 35.4168C34.2723 35.4168 21.5278 49.2668 21.5278 64.6474C21.5278 65.0974 21.5278 65.5224 21.5556 65.9724H78.4445C78.4723 65.5224 78.4723 65.0974 78.4723 64.6474C78.4723 49.2668 65.7278 35.4168 50.0001 35.4168Z" fill="#2FDF84"/>
<path d="M50.0001 28.4722C51.9177 28.4722 53.4723 26.9176 53.4723 24.9999C53.4723 23.0823 51.9177 21.5277 50.0001 21.5277C48.0824 21.5277 46.5278 23.0823 46.5278 24.9999C46.5278 26.9176 48.0824 28.4722 50.0001 28.4722Z" fill="#2FDF84"/>
<path d="M21.5278 67.3614L24.3056 78.4725H30.5556L27.7778 67.3614H21.5278Z" fill="#D5DBE1"/>
<path d="M53.1251 35.6113C52.0973 35.489 51.0584 35.4168 50.0001 35.4168C34.2723 35.4168 21.5278 49.2668 21.5278 64.6474C21.5278 65.0974 21.5278 65.5224 21.5556 65.9724H27.8056C27.7778 65.5224 27.7778 65.0974 27.7778 64.6474C27.7778 50.3002 38.8695 37.2974 53.1251 35.6113Z" fill="#00B871"/>
<path d="M75.6946 80.5555H24.3057C23.3502 80.5555 22.5168 79.9055 22.2835 78.9778L19.5057 67.8667C19.3502 67.2444 19.4891 66.5861 19.8835 66.0778C20.2807 65.5722 20.8863 65.2778 21.528 65.2778H78.4724C79.1141 65.2778 79.7196 65.5722 80.1141 66.0778C80.5085 66.5861 80.6474 67.2444 80.4919 67.8667L77.7141 78.9778C77.4835 79.9055 76.6502 80.5555 75.6946 80.5555ZM25.9307 76.3889H74.0669L75.8057 69.4444H24.1946L25.9307 76.3889Z" fill="#353643"/>
<path d="M80.5249 66.0976L76.3666 65.8476C76.3916 65.4393 76.3888 65.0532 76.3888 64.6448C76.3888 49.9309 64.3027 37.5004 49.9999 37.5004C35.6971 37.5004 23.611 49.9337 23.611 64.6448C23.611 65.0504 23.611 65.4365 23.6332 65.8476L19.4749 66.0976C19.4443 65.6059 19.4443 65.1393 19.4443 64.6448C19.4443 47.6726 33.4388 33.3337 49.9999 33.3337C66.561 33.3337 80.5555 47.6726 80.5555 64.6448C80.5555 65.1393 80.5555 65.6059 80.5249 66.0976Z" fill="#353643"/>
<path d="M47.9165 29.1669H52.0832V34.7224H47.9165V29.1669Z" fill="#353643"/>
<path d="M49.9999 30.5557C46.936 30.5557 44.4443 28.064 44.4443 25.0001C44.4443 21.9362 46.936 19.4446 49.9999 19.4446C53.0638 19.4446 55.5555 21.9362 55.5555 25.0001C55.5555 28.064 53.0638 30.5557 49.9999 30.5557ZM49.9999 23.6112C49.2332 23.6112 48.611 24.2362 48.611 25.0001C48.611 25.764 49.2332 26.389 49.9999 26.389C50.7666 26.389 51.3888 25.764 51.3888 25.0001C51.3888 24.2362 50.7666 23.6112 49.9999 23.6112Z" fill="#353643"/>
<path d="M72.222 59.028H68.0553C68.0553 51.753 62.1358 45.8335 54.8608 45.8335V41.6669C64.4331 41.6669 72.222 49.4558 72.222 59.028Z" fill="#353643"/>
<path d="M18.75 65.2777H81.25V69.4444H18.75V65.2777Z" fill="#353643"/>
</svg>
