<svg width="100" height="100" viewBox="0 0 100 100" fill="none" xmlns="http://www.w3.org/2000/svg">
<path d="M76.7308 88.4252C57.5169 88.4252 44.3224 98.378 35.0641 98.378C25.8058 98.378 6.36133 93.0557 6.36133 50.4641C6.36133 7.87241 32.5197 1.61963 42.703 1.61963C90.3891 1.61963 110.759 88.4252 76.7308 88.4252Z" fill="white"/>
<path d="M62.5002 16.6665C60.2029 16.6665 58.3335 14.7971 58.3335 12.4999C58.3335 10.2026 60.2029 8.33319 62.5002 8.33319C64.7974 8.33319 66.6668 10.2026 66.6668 12.4999C66.6668 14.7971 64.7974 16.6665 62.5002 16.6665ZM62.5002 11.111C61.7335 11.111 61.1113 11.736 61.1113 12.4999C61.1113 13.2637 61.7335 13.8887 62.5002 13.8887C63.2668 13.8887 63.8891 13.2637 63.8891 12.4999C63.8891 11.736 63.2668 11.111 62.5002 11.111Z" fill="#A4AFC1"/>
<path d="M78.4722 70.1386H21.5278C19.9944 70.1386 18.75 68.8942 18.75 67.3609V32.6386C18.75 31.1053 19.9944 29.8609 21.5278 29.8609H78.4722C80.0056 29.8609 81.25 31.1053 81.25 32.6386V67.3609C81.25 68.8942 80.0056 70.1386 78.4722 70.1386Z" fill="#F3F3F1"/>
<path d="M63.8887 45.139C65.8064 45.139 67.3609 43.5845 67.3609 41.6668C67.3609 39.7491 65.8064 38.1946 63.8887 38.1946C61.9711 38.1946 60.4165 39.7491 60.4165 41.6668C60.4165 43.5845 61.9711 45.139 63.8887 45.139Z" fill="#2FDF84"/>
<path d="M52.7774 59.028C54.6951 59.028 56.2496 57.4735 56.2496 55.5558C56.2496 53.6381 54.6951 52.0836 52.7774 52.0836C50.8597 52.0836 49.3052 53.6381 49.3052 55.5558C49.3052 57.4735 50.8597 59.028 52.7774 59.028Z" fill="#2FDF84"/>
<path d="M36.1109 50.6945C38.0285 50.6945 39.5831 49.1399 39.5831 47.2222C39.5831 45.3046 38.0285 43.75 36.1109 43.75C34.1932 43.75 32.6387 45.3046 32.6387 47.2222C32.6387 49.1399 34.1932 50.6945 36.1109 50.6945Z" fill="#2FDF84"/>
<path d="M25 67.3609V32.6386C25 31.1053 26.2444 29.8609 27.7778 29.8609H21.5278C19.9944 29.8609 18.75 31.1053 18.75 32.6386V67.3609C18.75 68.8942 19.9944 70.1386 21.5278 70.1386H27.7778C26.2444 70.1386 25 68.8942 25 67.3609Z" fill="#D5DBE1"/>
<path d="M66.6665 41.6668C66.6665 41.139 66.8026 40.6529 67.0137 40.2057C66.4582 39.0251 65.2776 38.1946 63.8887 38.1946C61.9721 38.1946 60.4165 39.7501 60.4165 41.6668C60.4165 43.5835 61.9721 45.139 63.8887 45.139C65.2776 45.139 66.4582 44.3085 67.0137 43.1279C66.8026 42.6807 66.6665 42.1946 66.6665 41.6668Z" fill="#00B871"/>
<path d="M55.5557 55.5554C55.5557 55.0276 55.6918 54.5415 55.9029 54.0943C55.3473 52.9137 54.1668 52.0832 52.7779 52.0832C50.8612 52.0832 49.3057 53.6387 49.3057 55.5554C49.3057 57.4721 50.8612 59.0276 52.7779 59.0276C54.1668 59.0276 55.3473 58.197 55.9029 57.0165C55.6918 56.5693 55.5557 56.0832 55.5557 55.5554Z" fill="#00B871"/>
<path d="M38.8887 47.2222C38.8887 46.6944 39.0248 46.2083 39.2359 45.7611C38.6803 44.5806 37.4998 43.75 36.1109 43.75C34.1942 43.75 32.6387 45.3056 32.6387 47.2222C32.6387 49.1389 34.1942 50.6945 36.1109 50.6945C37.4998 50.6945 38.6803 49.8639 39.2359 48.6833C39.0248 48.2361 38.8887 47.75 38.8887 47.2222Z" fill="#00B871"/>
<path d="M63.889 47.222C60.8252 47.222 58.3335 44.7303 58.3335 41.6665C58.3335 38.6026 60.8252 36.1109 63.889 36.1109C66.9529 36.1109 69.4446 38.6026 69.4446 41.6665C69.4446 44.7303 66.9529 47.222 63.889 47.222ZM63.889 40.2776C63.1224 40.2776 62.5002 40.9026 62.5002 41.6665C62.5002 42.4303 63.1224 43.0553 63.889 43.0553C64.6557 43.0553 65.2779 42.4303 65.2779 41.6665C65.2779 40.9026 64.6557 40.2776 63.889 40.2776Z" fill="#353643"/>
<path d="M52.7777 61.1111C49.7138 61.1111 47.2222 58.6195 47.2222 55.5556C47.2222 52.4917 49.7138 50 52.7777 50C55.8416 50 58.3333 52.4917 58.3333 55.5556C58.3333 58.6195 55.8416 61.1111 52.7777 61.1111ZM52.7777 54.1667C52.0111 54.1667 51.3888 54.7917 51.3888 55.5556C51.3888 56.3195 52.0111 56.9445 52.7777 56.9445C53.5444 56.9445 54.1666 56.3195 54.1666 55.5556C54.1666 54.7917 53.5444 54.1667 52.7777 54.1667Z" fill="#353643"/>
<path d="M36.1112 52.7779C33.0473 52.7779 30.5557 50.2863 30.5557 47.2224C30.5557 44.1585 33.0473 41.6668 36.1112 41.6668C39.1751 41.6668 41.6668 44.1585 41.6668 47.2224C41.6668 50.2863 39.1751 52.7779 36.1112 52.7779ZM36.1112 45.8335C35.3446 45.8335 34.7223 46.4585 34.7223 47.2224C34.7223 47.9863 35.3446 48.6113 36.1112 48.6113C36.8779 48.6113 37.5001 47.9863 37.5001 47.2224C37.5001 46.4585 36.8779 45.8335 36.1112 45.8335Z" fill="#353643"/>
<path d="M53.7622 51.0115L59.7058 43.5629L62.9641 46.1629L57.0205 53.6115L53.7622 51.0115Z" fill="#353643"/>
<path d="M38.8979 50.9211L40.7534 47.1853L50.0369 51.796L48.1815 55.5318L38.8979 50.9211Z" fill="#353643"/>
<path d="M78.472 72.2222H21.5276C18.8471 72.2222 16.6665 70.0416 16.6665 67.3611V32.6388C16.6665 29.9583 18.8471 27.7777 21.5276 27.7777H78.472C81.1526 27.7777 83.3332 29.9583 83.3332 32.6388V67.3611C83.3332 70.0416 81.1526 72.2222 78.472 72.2222ZM21.5276 31.9444C21.1443 31.9444 20.8332 32.2555 20.8332 32.6388V67.3611C20.8332 67.7444 21.1443 68.0555 21.5276 68.0555H78.472C78.8554 68.0555 79.1665 67.7444 79.1665 67.3611V32.6388C79.1665 32.2555 78.8554 31.9444 78.472 31.9444H21.5276Z" fill="#353643"/>
<path d="M47.9165 70.1388H52.0832V81.2499H47.9165V70.1388Z" fill="#353643"/>
<path d="M32.6387 79.1665H67.3609V83.3332H32.6387V79.1665Z" fill="#353643"/>
</svg>
