<svg width="24" height="24" viewBox="0 0 24 24" fill="none" xmlns="http://www.w3.org/2000/svg">
<path d="M16 2.99976H8C5.2386 2.99976 3 5.23836 3 7.99976V15.9998C3 18.7612 5.2386 20.9998 8 20.9998H16C18.7614 20.9998 21 18.7612 21 15.9998V7.99976C21 5.23836 18.7614 2.99976 16 2.99976Z" stroke="#353643" stroke-width="1.29635" stroke-miterlimit="10"/>
<path d="M15.375 11.9999C15.375 10.1359 13.864 8.62488 12 8.62488C10.136 8.62488 8.625 10.1359 8.625 11.9999C8.625 13.8639 10.136 15.3749 12 15.3749C13.864 15.3749 15.375 13.8639 15.375 11.9999ZM17.375 7.31188C17.375 6.93248 17.0664 6.62488 16.687 6.62488C16.5048 6.62488 16.3301 6.69726 16.2012 6.8261C16.0724 6.95493 16 7.12967 16 7.31188V7.31288C16 7.69228 16.3086 7.99988 16.688 7.99988C16.8702 7.99988 17.0449 7.9275 17.1738 7.79866C17.3026 7.66982 17.375 7.49508 17.375 7.31288V7.31188V7.31188Z" stroke="#353643" stroke-width="1.29635" stroke-miterlimit="10"/>
</svg>
